<svg width="596" height="109" viewBox="0 0 596 109" fill="none" xmlns="http://www.w3.org/2000/svg">
<g clip-path="url(#clip0_0_71)">
<path d="M0 87H29.883C45.6703 87 53 81.3269 53 69.9806C53 58.6345 42.2873 56.3653 42.2873 56.3653V55.798C42.2873 55.798 51.3085 53.5287 51.3085 43.8845C51.3085 33.1058 43.415 28 28.1915 28H0V87ZM28.1915 62.0384C33.8298 62.0384 37.2128 64.3076 37.2128 68.846C37.2128 73.3844 34.3936 75.6538 29.3191 75.6538H15.7873V62.0384H28.1915ZM15.7873 51.8268V39.3461H28.1915C33.266 39.3461 35.5213 41.6153 35.5213 45.5864C35.5213 49.5576 32.7021 51.8268 27.0638 51.8268H15.7873Z" fill="#6F3DFF"/>
<path d="M57 57C57 74.1341 67.1584 88 86.3467 88C112.307 88 114 64.8909 114 64.8909H98.1985C98.1985 64.8909 97.6338 76.1633 86.3467 76.1633C76.3011 76.1633 72.802 67.5963 72.802 57C72.802 46.4036 76.3011 37.8363 86.3467 37.8363C97.6338 37.8363 98.1985 49.109 98.1985 49.109H114C114 49.109 112.307 26 86.3467 26C67.1584 26 57 39.8655 57 57Z" fill="#6F3DFF"/>
<path d="M118 57C118 74.1341 127.667 88 147.568 88C172.019 88 175.432 67.1453 175.432 67.1453H159.51C159.51 67.1453 157.804 76.1633 148.137 76.1633C138.584 76.1633 134.718 69.3999 134.036 60.3818H175.886C175.886 60.3818 176 58.3527 176 57C176 39.8655 167.016 26 147.568 26C128.122 26 118 39.8655 118 57ZM147.568 37.8363C155.416 37.8363 158.6 43.0218 159.624 50.2363H134.49C135.855 43.0218 139.721 37.8363 147.568 37.8363Z" fill="#6F3DFF"/>
<path d="M252 28H228.334L216.5 68.846L204.667 28H181V87H195.652V45.5864H196.214L209.175 87H223.825L236.787 45.5864H237.349V87H252V28Z" fill="#6F3DFF"/>
<path d="M344 27.7055H328.829V35.6644H328.266C328.266 35.6644 323.21 26 310.286 26C293.429 26 285 40.7808 285 56.1301C285 71.4794 293.429 86.2602 310.286 86.2602C322.647 86.2602 327.704 78.3011 327.704 78.3011H328.266V81.144C328.266 91.3764 324.783 97.0613 314.781 97.0613C303.543 97.0613 302.981 88.5344 302.981 88.5344H287.248C287.248 88.5344 287.81 109 314.781 109C335.01 109 344 97.0613 344 80.0064V27.7055ZM328.829 56.1301C328.829 65.6808 324.333 74.3215 314.781 74.3215C305.229 74.3215 300.734 65.6808 300.734 56.1301C300.734 46.5795 305.229 37.9383 314.781 37.9383C324.333 37.9383 328.829 46.5795 328.829 56.1301Z" fill="#6F3DFF"/>
<path d="M364.849 57C364.849 46.4036 368.925 37.8363 379 37.8363C389.076 37.8363 393.151 46.4036 393.151 57C393.151 67.5963 389.076 76.1633 379 76.1633C368.925 76.1633 364.849 67.5963 364.849 57ZM349 57C349 74.1341 359.642 88 379 88C398.359 88 409 74.1341 409 57C409 39.8655 398.359 26 379 26C359.642 26 349 39.8655 349 57Z" fill="#6F3DFF"/>
<path d="M430.532 59.5454C430.532 50.0292 434.637 41.9859 444.785 41.9859C454.932 41.9859 459.037 50.0292 459.037 59.5454C459.037 69.0614 454.932 77.1046 444.785 77.1046C434.637 77.1046 430.532 69.0614 430.532 59.5454ZM444.785 89C464.738 89 475 75.4054 475 59.5454C475 43.1188 464.738 30.0909 447.066 30.0909C433.383 30.0909 428.253 39.1537 428.253 39.1537H427.682C429.621 26.6923 434.409 21.0279 447.293 21.0279H470.439V8H448.662C432.128 8 414 13.6643 414 51.6153C414 79.9372 428.822 89 444.785 89Z" fill="#6F3DFF"/>
<path d="M479 107H494.734V80.3775H495.295C495.295 80.3775 500.353 88.3077 512.715 88.3077C529.572 88.3077 538 73.5806 538 57.1538C538 40.7272 529.572 26 512.715 26C499.791 26 494.734 35.6294 494.734 35.6294H494.172V27.6993H479V107ZM494.172 57.1538C494.172 46.5049 498.667 37.895 508.219 37.895C517.771 37.895 522.267 46.5049 522.267 57.1538C522.267 67.8027 517.771 76.4123 508.219 76.4123C498.667 76.4123 494.172 67.8027 494.172 57.1538Z" fill="#6F3DFF"/>
<path d="M559.622 45.7272C559.849 39.4145 563.601 36.709 570.421 36.709C576.674 36.709 580.085 39.4145 580.085 44.0363C580.085 50.5745 570.763 51.3636 560.872 53.8436C551.095 56.3235 542 61.2836 542 72.2181C542 83.0404 549.958 88 560.758 88C575.878 88 579.516 75.0364 579.516 75.0364H580.085V86.3092H596V46.2908C596 31.0727 584.631 26 570.421 26C556.779 26 544.615 30.7346 543.705 45.7272H559.622ZM580.085 56.7745C580.085 65.4544 577.242 77.8541 566.442 77.8541C561.327 77.8541 558.144 75.0364 558.144 70.5271C558.144 65.3417 562.463 62.749 567.58 61.5091C572.126 60.3818 577.47 59.1417 580.085 56.7745Z" fill="#6F3DFF"/>
<path d="M594 1.12501C592.941 2.17501 591.541 3.44993 589.801 4.94997C588.061 6.45001 586.208 8.02496 584.241 9.67501C582.198 11.325 580.232 12.9 578.34 14.4C576.374 15.825 574.672 17.025 573.234 18H562V16.5375C563.211 15.1125 564.647 13.4625 566.312 11.5874C567.901 9.63746 569.489 7.65002 571.078 5.62493C572.666 3.52493 573.991 1.64996 575.05 0H594V1.12501Z" fill="#FFC700"/>
</g>
<defs>
<clipPath id="clip0_0_71">
<rect width="596" height="109" fill="white"/>
</clipPath>
</defs>
</svg>
