<svg width="46" height="50" viewBox="0 0 46 50" fill="none" xmlns="http://www.w3.org/2000/svg">
<g clip-path="url(#clip0_0_51)">
<path d="M23 50C35.7025 50 46 39.4787 46 26.5C46 13.5213 35.7025 3 23 3C10.2975 3 0 13.5213 0 26.5C0 39.4787 10.2975 50 23 50Z" fill="#6F3DFF"/>
<path d="M18.5053 20.5909C18.6021 17.8418 20.2 16.6636 23.1053 16.6636C25.7686 16.6636 27.2212 17.8418 27.2212 19.8546C27.2212 22.7018 23.2506 23.0455 19.0379 24.1254C14.8737 25.2055 11 27.3653 11 32.1272C11 36.84 14.3895 39 18.9895 39C25.4295 39 26.979 33.3546 26.979 33.3546H27.2212V38.2637H34V20.8364C34 14.2091 29.1579 12 23.1053 12C17.2947 12 12.1137 14.0618 11.7263 20.5909H18.5053ZM27.2212 25.4018C27.2212 29.1818 26.0105 34.5817 21.4106 34.5817C19.2316 34.5817 17.8758 33.3546 17.8758 31.3908C17.8758 29.1328 19.7158 28.0037 21.8948 27.4636C23.8316 26.9728 26.1074 26.4327 27.2212 25.4018Z" fill="#F7FAFF"/>
<path d="M33 0.5C32.5368 0.966665 31.9244 1.53333 31.163 2.2C30.4019 2.86666 29.591 3.56667 28.7306 4.29999C27.837 5.03333 26.9765 5.73332 26.1489 6.39999C25.2884 7.03333 24.5437 7.56667 23.9149 8H19V7.35001C19.5296 6.71666 20.1584 5.98332 20.8865 5.14999C21.5816 4.28333 22.2766 3.39999 22.9716 2.5C23.6667 1.56667 24.2459 0.733332 24.7092 0H33V0.5Z" fill="#FFC700"/>
</g>
<defs>
<clipPath id="clip0_0_51">
<rect width="46" height="50" fill="white"/>
</clipPath>
</defs>
</svg>
