<svg width="157" height="82" viewBox="0 0 157 82" fill="none" xmlns="http://www.w3.org/2000/svg">
<path d="M15 0H157L142 82H0L15 0Z" fill="white"/>
<path d="M28 45.4899H41.052L42.0444 39.7995H28.9924L28 45.4899Z" fill="#202020"/>
<path d="M41.3972 56.2456H63.8985L64.8909 50.5552H52.6155L60.3389 43.2698C62.1798 41.6029 63.7115 39.9791 64.934 38.3984C66.1565 36.8178 66.9476 35.0144 67.3071 32.9882C67.753 30.3873 67.2065 28.2965 65.6675 26.7159C64.143 25.1352 61.6189 24.3449 58.0952 24.3449C54.7441 24.3449 51.8964 25.243 49.552 27.0392C47.2077 28.821 45.791 31.113 45.302 33.9151L45.0432 35.3377H52.3135L52.4429 34.5617C52.7737 32.6793 53.349 31.3645 54.1688 30.6172C55.003 29.87 55.9882 29.4964 57.1244 29.4964C58.2318 29.4964 59.0373 29.8197 59.5406 30.4664C60.0584 31.0986 60.2094 32.047 59.9937 33.3116C59.7923 34.4611 59.2746 35.5676 58.4404 36.631C57.6062 37.6799 56.5851 38.7792 55.3769 39.9288L42.1739 51.8269L41.3972 56.2456Z" fill="#202020"/>
<path d="M67.9759 45.3821C67.3431 48.9889 67.7961 51.791 69.3351 53.7884C70.8884 55.7714 73.4053 56.7629 76.8858 56.7629C80.2082 56.7773 83.0343 55.7929 85.3643 53.8099C87.7086 51.8125 89.1972 49.0033 89.83 45.3821L91.5343 35.7257C92.1671 32.1332 91.6997 29.3383 90.132 27.341C88.5644 25.3436 86.0546 24.3449 82.6028 24.3449C79.1511 24.3449 76.289 25.3579 74.0165 27.3841C71.7441 29.4102 70.2987 32.1907 69.6802 35.7257L67.9759 45.3821ZM75.0305 46.546L77.1231 34.6695C77.4108 33.0457 77.9286 31.7812 78.6764 30.8759C79.4387 29.9562 80.4455 29.4964 81.6967 29.4964C82.9624 29.4964 83.811 29.9562 84.2424 30.8759C84.6883 31.7812 84.7674 33.0457 84.4797 34.6695L82.3871 46.546C82.0995 48.1411 81.5745 49.3984 80.8122 50.3181C80.0643 51.2234 79.0576 51.676 77.7919 51.676C76.5263 51.676 75.6777 51.2234 75.2462 50.3181C74.8148 49.3984 74.7429 48.1411 75.0305 46.546Z" fill="#202020"/>
<path d="M94.1232 34.7557C93.7204 37.0405 94.0441 38.8152 95.094 40.0797C96.1439 41.3442 97.7763 41.9765 99.9912 41.9765C102.22 41.9765 104.083 41.3442 105.579 40.0797C107.075 38.8152 108.031 37.0405 108.448 34.7557L109.031 31.3717C109.419 29.2018 109.088 27.499 108.038 26.2632C106.988 25.0131 105.341 24.388 103.098 24.388C100.897 24.388 99.0419 25.0059 97.5318 26.2417C96.036 27.4631 95.094 29.1731 94.7056 31.3717L94.1232 34.7557ZM99.0635 35.2515L99.797 31.1777C99.9552 30.2149 100.236 29.482 100.638 28.9791C101.055 28.4618 101.652 28.2031 102.429 28.2031C103.206 28.2031 103.709 28.4618 103.939 28.9791C104.169 29.482 104.198 30.2149 104.025 31.1777L103.314 35.2515C103.141 36.2286 102.846 36.9615 102.429 37.45C102.026 37.9386 101.437 38.1829 100.66 38.1829C99.8977 38.1829 99.4015 37.9386 99.1714 37.45C98.9413 36.9615 98.9053 36.2286 99.0635 35.2515ZM124.391 26.2632L120.659 24L97.316 54.6074L100.962 57L124.391 26.2632ZM112.935 49.5852C112.533 51.87 112.856 53.6447 113.906 54.9092C114.956 56.1737 116.588 56.806 118.803 56.806C121.033 56.806 122.895 56.1737 124.391 54.9092C125.887 53.6447 126.843 51.87 127.26 49.5852L127.843 46.2012C128.231 44.0314 127.9 42.3285 126.85 41.0928C125.8 39.8426 124.154 39.2175 121.91 39.2175C119.709 39.2175 117.854 39.8354 116.344 41.0712C114.848 42.2926 113.906 44.0026 113.518 46.2012L112.935 49.5852ZM117.876 50.081L118.609 46.0072C118.767 45.0444 119.048 44.3116 119.451 43.8086C119.868 43.2913 120.465 43.0327 121.241 43.0327C122.018 43.0327 122.521 43.2913 122.751 43.8086C122.981 44.3116 123.01 45.0444 122.838 46.0072L122.126 50.081C121.953 51.0581 121.658 51.791 121.241 52.2796C120.838 52.7681 120.249 53.0124 119.472 53.0124C118.71 53.0124 118.214 52.7681 117.984 52.2796C117.753 51.791 117.718 51.0581 117.876 50.081Z" fill="#202020"/>
</svg>
