<svg width="481" height="41" viewBox="0 0 481 41" fill="none" xmlns="http://www.w3.org/2000/svg">
<path d="M0.228626 21.4567C-0.358738 24.7677 0.185648 27.3835 1.86178 29.3041C3.55224 31.2248 6.08794 32.1851 9.46886 32.1851C12.7781 32.1851 15.4643 31.4326 17.5272 29.9276C19.5901 28.4227 20.8508 26.4447 21.3092 23.9937L21.3952 23.6067H14.6692L14.6262 23.8862C14.44 24.8465 14.003 25.6492 13.3154 26.2942C12.6421 26.9248 11.6751 27.2402 10.4144 27.2402C9.03908 27.2402 8.0864 26.7457 7.55634 25.7567C7.02628 24.7677 6.91884 23.4275 7.23401 21.7362L7.4489 20.4677C7.74974 18.7478 8.33711 17.4148 9.21099 16.4688C10.0992 15.5085 11.2238 15.0283 12.5847 15.0283C13.7738 15.0283 14.6119 15.3365 15.099 15.9528C15.586 16.5691 15.7436 17.3861 15.5717 18.4038L15.5072 18.6833H22.2548L22.2977 18.2533C22.6272 15.7593 22.0399 13.767 20.5356 12.2764C19.0457 10.7714 16.6462 10.0189 13.3369 10.0189C9.95594 10.0189 7.09075 10.9792 4.7413 12.8998C2.39184 14.8062 0.923434 17.422 0.33607 20.7472L0.228626 21.4567Z" fill="white"/>
<path d="M37.3829 31.6261H45.2909L38.2425 18.0598L32.6769 22.1232L37.3829 31.6261ZM28.8519 18.4468L27.9708 23.5422H37.1466L47.9125 10.6639H40.3914L34.1166 18.4468H28.8519ZM33.6869 10.6639H26.7245L23.0284 31.6261H29.9908L33.6869 10.6639Z" fill="white"/>
<path d="M47.01 31.6261H54.5311L61.3646 21.4997C61.823 20.7974 62.1668 20.2958 62.396 19.9948C62.6253 19.6794 62.8831 19.2781 63.1696 18.7908H63.3201C63.2198 19.3068 63.1195 19.7798 63.0192 20.2098C62.9189 20.6397 62.8115 21.1127 62.6969 21.6287L60.9348 31.6261H67.8542L71.5503 10.6639H64.0507L57.2172 20.7042C56.7588 21.4209 56.4078 21.9369 56.1643 22.2522C55.935 22.5676 55.67 22.9689 55.3692 23.4562L55.1973 23.4347C55.3405 22.9331 55.4623 22.4601 55.5626 22.0157C55.6772 21.5571 55.7846 21.0769 55.8849 20.5752L57.6255 10.6639H50.7061L47.01 31.6261Z" fill="white"/>
<path d="M88.0108 37.431H94.479L96.3915 26.4662H71.142L69.2295 37.431H75.7192L76.7291 31.6261H89.0208L88.0108 37.431ZM82.8965 15.8238H88.2902L85.4751 31.6261H92.4161L96.1121 10.6639H77.911L76.2779 18.6618C75.8051 20.6541 75.318 22.3024 74.8166 23.6067C74.3152 24.911 73.7637 25.9573 73.162 26.7457H79.5872C80.0456 26.0863 80.4539 25.1332 80.812 23.8862C81.1845 22.6392 81.5283 21.2919 81.8435 19.8443L82.8965 15.8238Z" fill="white"/>
<path d="M112.336 31.6261H120.244L113.196 18.0598L107.63 22.1232L112.336 31.6261ZM103.805 18.4468L102.924 23.5422H112.1L122.866 10.6639H115.345L109.07 18.4468H103.805ZM108.64 10.6639H101.678L97.9817 31.6261H104.944L108.64 10.6639Z" fill="white"/>
<path d="M122.049 25.5417C121.677 27.663 122.064 29.2683 123.21 30.3576C124.356 31.4326 126.018 31.9701 128.195 31.9701C130.014 31.9701 131.583 31.6476 132.901 31.0026C134.233 30.3576 135.208 29.6338 135.824 28.8311C135.781 29.3471 135.781 29.856 135.824 30.3576C135.867 30.8593 135.953 31.2821 136.082 31.6261H142.936L143.001 31.3036C142.815 30.7446 142.714 30.0781 142.7 29.3041C142.686 28.5302 142.75 27.7132 142.894 26.8532L144.548 17.5008C145.007 14.9352 144.52 13.0575 143.087 11.8679C141.669 10.6782 139.391 10.0834 136.253 10.0834C133.159 10.0834 130.573 10.6997 128.496 11.9324C126.433 13.1507 125.23 14.7417 124.886 16.7053L124.8 17.1568L131.332 17.1783L131.418 16.7698C131.547 16.0245 131.913 15.4296 132.514 14.9853C133.13 14.5267 133.99 14.2973 135.093 14.2973C136.21 14.2973 136.955 14.5625 137.328 15.0928C137.7 15.6231 137.801 16.3613 137.629 17.3073L137.414 18.5758H132.643C129.864 18.5758 127.5 19.1849 125.552 20.4032C123.604 21.6216 122.436 23.3344 122.049 25.5417ZM129.033 24.9827C129.205 24.051 129.678 23.3702 130.451 22.9402C131.239 22.5102 132.35 22.2952 133.782 22.2952H136.791L136.447 24.0582C136.261 25.0615 135.688 25.943 134.728 26.7027C133.782 27.448 132.751 27.8207 131.633 27.8207C130.602 27.8207 129.871 27.577 129.441 27.0897C129.026 26.588 128.89 25.8857 129.033 24.9827Z" fill="white"/>
<path d="M160.729 10.6639L157.033 31.6261H163.974L165.414 23.5207H172.054L170.636 31.6261H177.577L181.273 10.6639H174.332L172.956 18.4683H166.295L167.67 10.6639H160.729Z" fill="white"/>
<path d="M182.046 25.5417C181.674 27.663 182.061 29.2683 183.207 30.3576C184.353 31.4326 186.015 31.9701 188.192 31.9701C190.012 31.9701 191.58 31.6476 192.898 31.0026C194.231 30.3576 195.205 29.6338 195.821 28.8311C195.778 29.3471 195.778 29.856 195.821 30.3576C195.864 30.8593 195.95 31.2821 196.079 31.6261H202.934L202.998 31.3036C202.812 30.7446 202.711 30.0781 202.697 29.3041C202.683 28.5302 202.747 27.7132 202.891 26.8532L204.545 17.5008C205.004 14.9352 204.517 13.0575 203.084 11.8679C201.666 10.6782 199.388 10.0834 196.25 10.0834C193.156 10.0834 190.57 10.6997 188.493 11.9324C186.43 13.1507 185.227 14.7417 184.883 16.7053L184.797 17.1568L191.33 17.1783L191.415 16.7698C191.544 16.0245 191.91 15.4296 192.511 14.9853C193.127 14.5267 193.987 14.2973 195.09 14.2973C196.207 14.2973 196.952 14.5625 197.325 15.0928C197.697 15.6231 197.798 16.3613 197.626 17.3073L197.411 18.5758H192.64C189.861 18.5758 187.497 19.1849 185.549 20.4032C183.601 21.6216 182.433 23.3344 182.046 25.5417ZM189.03 24.9827C189.202 24.051 189.675 23.3702 190.448 22.9402C191.236 22.5102 192.347 22.2952 193.779 22.2952H196.788L196.444 24.0582C196.258 25.0615 195.685 25.943 194.725 26.7027C193.779 27.448 192.748 27.8207 191.63 27.8207C190.599 27.8207 189.868 27.577 189.438 27.0897C189.023 26.588 188.887 25.8857 189.03 24.9827Z" fill="white"/>
<path d="M220.726 10.6639L217.03 31.6261H223.971L226.786 15.8238H233.104L230.289 31.6261H237.23L240.926 10.6639H220.726Z" fill="white"/>
<path d="M242.366 21.4352C241.778 24.7319 242.323 27.3548 243.999 29.3041C245.675 31.2391 248.325 32.2066 251.95 32.2066C254.543 32.2066 256.735 31.7336 258.525 30.7876C260.33 29.8273 261.713 28.5445 262.673 26.9392L257.558 24.8107C257.014 25.513 256.333 26.1007 255.517 26.5737C254.7 27.0323 253.769 27.2617 252.723 27.2617C251.262 27.2617 250.238 26.7672 249.65 25.7782C249.063 24.7749 248.927 23.3845 249.242 21.6072L249.436 20.1453C249.751 18.6259 250.345 17.3718 251.219 16.3828C252.107 15.3938 253.232 14.8993 254.593 14.8993C255.811 14.8993 256.656 15.2433 257.129 15.9313C257.616 16.6193 257.759 17.4793 257.558 18.5113L257.494 18.7908H246.792L246.298 22.5532H263.769L264.069 20.4677C264.643 17.2285 264.177 14.6843 262.673 12.8353C261.183 10.972 258.79 10.0404 255.495 10.0404C252.157 10.0404 249.292 11.015 246.9 12.9643C244.522 14.8993 243.046 17.4936 242.473 20.7472L242.366 21.4352Z" fill="white"/>
<path d="M263.661 40.742H270.602L272.579 29.4761C273.052 30.2645 273.761 30.8951 274.706 31.3681C275.666 31.8268 276.87 32.0561 278.317 32.0561C280.967 32.0561 283.288 31.0958 285.279 29.1751C287.27 27.2402 288.552 24.653 289.126 21.4137L289.233 20.7257C289.806 17.4291 289.441 14.8492 288.137 12.9858C286.833 11.1082 284.835 10.1694 282.142 10.1694C280.709 10.1694 279.377 10.456 278.145 11.0294C276.927 11.5884 275.989 12.2835 275.33 13.1148L275.265 13.1363L275.63 10.6639H268.947L263.661 40.742ZM273.46 24.4237L274.621 17.8233C275.05 17.1066 275.645 16.4831 276.404 15.9528C277.178 15.4081 278.066 15.1358 279.069 15.1358C280.458 15.1358 281.404 15.6088 281.905 16.5548C282.421 17.5008 282.528 18.8051 282.228 20.4677L282.013 21.7147C281.726 23.363 281.16 24.6817 280.315 25.6707C279.47 26.6597 278.345 27.1542 276.941 27.1542C275.981 27.1542 275.201 26.8818 274.599 26.3372C274.012 25.7782 273.632 25.1404 273.46 24.4237Z" fill="white"/>
<path d="M290.651 31.6261H303.308C305.873 31.6261 307.85 31.1245 309.239 30.1211C310.643 29.1035 311.51 27.706 311.839 25.9287C312.083 24.438 311.825 23.2627 311.066 22.4027C310.306 21.5427 309.203 21.0052 307.756 20.7902V20.7257C309.132 20.4247 310.263 19.8729 311.152 19.0703C312.054 18.2676 312.62 17.1783 312.849 15.8023C313.15 14.0967 312.778 12.8138 311.732 11.9539C310.686 11.0939 308.852 10.6639 306.231 10.6639H294.347L290.651 31.6261ZM299.634 19.0273L300.45 14.5768H303.652C304.526 14.5768 305.135 14.756 305.479 15.1143C305.837 15.4726 305.951 16.003 305.822 16.7053C305.679 17.4936 305.364 18.0813 304.877 18.4683C304.39 18.8409 303.709 19.0273 302.835 19.0273H299.634ZM298.108 27.6702L298.989 22.7467H302.621C303.552 22.7467 304.218 22.9546 304.619 23.3702C305.034 23.7715 305.171 24.3735 305.027 25.1762C304.884 26.0362 304.526 26.6668 303.953 27.0682C303.38 27.4695 302.635 27.6702 301.718 27.6702H298.108Z" fill="white"/>
<path d="M324.797 10.6639H317.856L314.16 31.6261H325.872C328.522 31.6261 330.642 31.0098 332.232 29.7771C333.837 28.5302 334.847 26.7385 335.262 24.4022C335.649 22.1089 335.269 20.3101 334.123 19.0058C332.977 17.7015 331.072 17.0493 328.407 17.0493H323.658L324.797 10.6639ZM326.043 21.5427C327.061 21.5427 327.741 21.7936 328.085 22.2952C328.429 22.7826 328.522 23.449 328.364 24.2947C328.192 25.1977 327.834 25.9 327.29 26.4017C326.76 26.889 325.993 27.1327 324.991 27.1327H321.853L322.906 21.5427H326.043ZM335.799 31.6261H342.826L346.522 10.6639H339.496L335.799 31.6261Z" fill="white"/>
<path d="M347.21 31.6261H354.731L361.565 21.4997C362.023 20.7974 362.367 20.2958 362.596 19.9948C362.825 19.6794 363.083 19.2781 363.37 18.7908H363.52C363.42 19.3068 363.32 19.7798 363.219 20.2098C363.119 20.6397 363.012 21.1127 362.897 21.6287L361.135 31.6261H368.054L371.75 10.6639H364.251L357.417 20.7042C356.959 21.4209 356.608 21.9369 356.364 22.2522C356.135 22.5676 355.87 22.9689 355.569 23.4562L355.397 23.4347C355.541 22.9331 355.662 22.4601 355.763 22.0157C355.877 21.5571 355.985 21.0769 356.085 20.5752L357.826 10.6639H350.906L347.21 31.6261ZM362.532 3.84845C361.529 3.84845 360.762 3.54029 360.232 2.92396C359.717 2.29331 359.394 1.31865 359.265 0L354.688 1.74148C355.032 3.79112 355.827 5.31043 357.073 6.29942C358.334 7.28841 359.917 7.7829 361.823 7.7829C363.771 7.7829 365.533 7.29558 367.109 6.32092C368.685 5.34627 370.017 3.81979 371.106 1.74148L367.173 0.0214997C366.572 1.35448 365.898 2.32914 365.153 2.94546C364.408 3.54746 363.534 3.84845 362.532 3.84845Z" fill="white"/>
<path d="M380.367 40.527C380.826 40.6847 381.342 40.7993 381.915 40.871C382.488 40.957 383.218 41 384.107 41C386.313 41 388.232 40.398 389.866 39.194C391.499 38.0044 393.125 35.9619 394.744 33.0666L407.143 10.6639H400.846L394.701 22.3382C394.471 22.7969 394.271 23.2054 394.099 23.5637C393.927 23.922 393.762 24.2947 393.605 24.6817H393.497C393.483 24.2947 393.454 23.9292 393.411 23.5852C393.383 23.2269 393.325 22.8184 393.239 22.3597L391.284 10.6639H384.45L389.027 31.6261H389.135C388.304 33.3318 387.473 34.5071 386.642 35.1521C385.811 35.8114 384.894 36.1411 383.892 36.1411C383.462 36.1411 383.018 36.1052 382.559 36.0336C382.101 35.9762 381.657 35.8974 381.227 35.7971L380.367 40.527Z" fill="white"/>
<path d="M403.941 40.742H410.882L412.859 29.4761C413.331 30.2645 414.041 30.8951 414.986 31.3681C415.946 31.8268 417.149 32.0561 418.596 32.0561C421.247 32.0561 423.567 31.0958 425.559 29.1751C427.55 27.2402 428.832 24.653 429.405 21.4137L429.513 20.7257C430.086 17.4291 429.72 14.8492 428.417 12.9858C427.113 11.1082 425.115 10.1694 422.421 10.1694C420.989 10.1694 419.656 10.456 418.424 11.0294C417.207 11.5884 416.268 12.2835 415.609 13.1148L415.545 13.1363L415.91 10.6639H409.227L403.941 40.742ZM413.74 24.4237L414.9 17.8233C415.33 17.1066 415.924 16.4831 416.684 15.9528C417.457 15.4081 418.346 15.1358 419.348 15.1358C420.738 15.1358 421.683 15.6088 422.185 16.5548C422.701 17.5008 422.808 18.8051 422.507 20.4677L422.292 21.7147C422.006 23.363 421.44 24.6817 420.595 25.6707C419.749 26.6597 418.625 27.1542 417.221 27.1542C416.261 27.1542 415.48 26.8818 414.879 26.3372C414.291 25.7782 413.912 25.1404 413.74 24.4237Z" fill="white"/>
<path d="M431.683 21.4567C431.11 24.7104 431.697 27.3118 433.445 29.2611C435.193 31.2105 437.786 32.1851 441.224 32.1851C444.662 32.1851 447.599 31.2105 450.035 29.2611C452.484 27.3118 453.996 24.7104 454.569 21.4567L454.676 20.7687C455.249 17.5151 454.662 14.9137 452.914 12.9643C451.166 11.0007 448.573 10.0189 445.135 10.0189C441.697 10.0189 438.753 11.0007 436.303 12.9643C433.868 14.9137 432.363 17.5151 431.79 20.7687L431.683 21.4567ZM438.903 20.4677C439.204 18.7764 439.813 17.4578 440.73 16.5118C441.661 15.5515 442.829 15.0713 444.233 15.0713C445.636 15.0713 446.632 15.5515 447.219 16.5118C447.821 17.4578 447.972 18.7764 447.671 20.4677L447.456 21.7147C447.155 23.4204 446.539 24.7605 445.608 25.7352C444.691 26.7098 443.523 27.1972 442.105 27.1972C440.687 27.1972 439.684 26.7098 439.097 25.7352C438.524 24.7605 438.388 23.4204 438.688 21.7147L438.903 20.4677Z" fill="white"/>
<path d="M470.47 31.6261H478.378L471.33 18.0598L465.764 22.1232L470.47 31.6261ZM461.939 18.4468L461.058 23.5422H470.234L481 10.6639H473.479L467.204 18.4468H461.939ZM466.774 10.6639H459.812L456.116 31.6261H463.078L466.774 10.6639Z" fill="white"/>
</svg>
