<svg width="216" height="166" viewBox="0 0 216 166" fill="none" xmlns="http://www.w3.org/2000/svg">
<path d="M-11.3273 81.1943L52.4638 108.353L59.4718 91.8919L25.7501 77.5353L51.9237 64.6971C58.2962 61.8889 63.7038 58.8139 68.1464 55.4721C72.6063 52.0897 76.0273 47.5448 78.4092 41.8374C81.5758 34.3995 81.5253 27.3685 78.2578 20.7442C75.0482 14.0966 68.4723 8.65639 58.5303 4.4237C49.0753 0.398315 40.3735 -0.329712 32.425 2.23962C24.5343 4.78557 18.9278 9.96037 15.6055 17.764L13.6848 22.2755L34.563 31.1641L35.5493 28.8474C37.868 23.4011 40.4136 20.0679 43.186 18.8477C45.9584 17.6275 48.907 17.6825 52.0316 19.0128C55.0345 20.2912 57.0364 22.1758 58.0372 24.6663C59.0787 27.1742 58.8121 30.2774 57.2374 33.976C55.8704 37.1868 53.6337 39.9074 50.5271 42.1376C47.4784 44.3444 43.9864 46.4105 40.0509 48.3359L-5.87669 68.3915L-11.3273 81.1943Z" fill="#95A0E4"/>
<path d="M83.3998 48.355L101.123 61.4457L81.3744 71.6901L90.6987 86.6063L108.835 73.731L112.186 95.7541L129.4 92.1367L123.036 70.7749L144.756 74.4768L146.297 56.8406L124.053 56.7327L134.235 36.8701L117.8 29.8732L110.601 51.0056L95.0447 35.0206L83.3998 48.355Z" fill="#95A0E4"/>
<path d="M123.559 138.621L187.35 165.779L194.358 149.318L160.637 134.962L186.81 122.124C193.183 119.315 198.59 116.24 203.033 112.899C207.493 109.516 210.914 104.971 213.296 99.2638C216.462 91.826 216.412 84.795 213.144 78.1707C209.935 71.523 203.359 66.0829 193.417 61.8502C183.962 57.8248 175.26 57.0968 167.312 59.6661C159.421 62.212 153.814 67.3868 150.492 75.1905L148.571 79.7019L169.45 88.5906L170.436 86.2739C172.755 80.8276 175.3 77.4944 178.073 76.2742C180.845 75.054 183.794 75.109 186.918 76.4393C189.921 77.7177 191.923 79.6022 192.924 82.0928C193.965 84.6006 193.699 87.7039 192.124 91.4025C190.757 94.6133 188.52 97.3339 185.414 99.5641C182.365 101.771 178.873 103.837 174.938 105.762L129.01 125.818L123.559 138.621Z" fill="#95A0E4"/>
</svg>
