<svg width="362" height="357" viewBox="0 0 362 357" fill="none" xmlns="http://www.w3.org/2000/svg">
<path d="M347.298 0.955089C341.356 0.483228 330.887 3.40658 321.455 8.31066C317.683 10.1968 285.804 23.3998 250.719 37.5458C215.633 51.6918 168.381 71.0247 145.745 80.644C99.4359 100.354 85.6657 105.824 66.8968 111.954C59.7288 114.406 47.6563 119.31 40.2054 122.988C28.3216 128.835 25.6808 130.721 17.2869 138.926C8.61013 147.603 7.66702 149.112 4.55494 157.695C-3.64962 180.425 2.01079 208.721 21.7249 244.468C33.2327 265.407 41.0615 275.499 61.2465 295.873C77.5642 312.191 81.2427 315.303 94.0704 323.604C131.516 348.034 171.601 360.392 198.01 355.866C212.818 353.32 219.42 349.925 229.417 339.739C235.736 333.42 238.848 329.176 241.772 322.857C244.035 318.329 268.178 257.967 295.527 188.928C322.97 119.794 347.584 58.3946 350.413 52.3584C361.164 29.7227 363.522 20.7626 361.069 13.0284C358.994 6.61471 353.146 1.52127 347.298 0.955089ZM326.173 37.1721C327.305 38.8699 328.531 38.0211 339.377 27.1751C348.525 18.0267 351.543 15.5745 352.203 16.8007C353.524 19.6303 349.752 31.7028 342.773 46.6047C339.001 54.7158 314.198 116.115 287.792 183.08C241.582 299.843 232.057 323.139 229.039 326.157C228.096 327.1 227.247 324.931 226.681 319.649C225.36 310.029 219.04 291.825 216.776 291.259C213.286 290.41 213.192 293.711 216.871 303.426C219.135 309.085 220.927 317.102 221.116 321.441L221.4 329.081L203.478 310.216C184.614 290.031 163.108 264.942 148.582 245.7C143.772 239.381 139.622 233.91 139.433 233.721C139.15 233.438 143.205 229.006 148.298 223.913C158.484 213.727 160.182 211.086 158.201 209.105C157.069 207.974 154.711 209.954 144.62 220.423L132.359 233.249L142.074 246.171C157.826 267.016 180.37 293.709 201.309 315.781L220.74 336.343L216.778 339.172C196.878 353.036 161.886 349.356 122.838 329.359C93.6926 314.361 67.1883 292.761 49.5498 269.464C13.1409 221.926 0.688753 175.332 18.0421 151.754C20.5885 148.264 22.0976 147.698 31.3407 146.755C41.9042 145.624 59.2587 147.134 71.6145 150.436C78.1225 152.039 82.9327 150.813 80.1973 148.078C77.462 145.343 58.8812 141.852 44.5449 141.474C32.0949 141.096 29.737 140.625 31.4346 138.927C35.2071 135.154 52.5612 127.421 75.0085 119.311C87.1752 114.879 119.903 101.77 147.632 90.0759C175.361 78.3818 224.688 58.1058 257.321 45.0915C289.86 31.9829 318.721 20.1002 321.456 18.6856C329.284 14.6303 340.979 10.2923 344.658 10.1981C347.865 10.0096 347.487 10.5755 336.453 22.5533C326.267 33.4937 324.947 35.38 326.173 37.1721Z" fill="#F1D4AC"/>
</svg>
