<svg width="291" height="409" viewBox="0 0 291 409" fill="none" xmlns="http://www.w3.org/2000/svg">
<path d="M220.24 1.7709C214.858 4.33329 207.253 12.0995 201.538 21.0624C199.213 24.5822 178.207 51.9556 154.895 81.7492C131.583 111.543 100.328 151.912 85.5345 171.56C55.2847 211.784 46.0943 223.406 32.9048 238.099C27.9231 243.807 19.92 254.09 15.3064 261.001C7.9383 272.006 6.59441 274.96 3.42771 286.263C0.251775 298.116 0.189542 299.894 1.78579 308.883C6.04552 332.67 25.0954 354.345 60.042 375.446C80.4775 387.826 92.3037 392.652 119.971 400.203C142.262 406.176 147.004 407.032 162.263 407.807C206.907 410.241 247.801 400.901 268.408 383.777C279.959 374.168 283.979 367.927 287.544 354.107C289.857 345.475 290.43 340.243 289.803 333.309C289.499 328.257 280.226 263.91 269.391 190.446C258.591 116.853 249.207 51.3722 248.639 44.73C246.632 19.7513 244.194 10.8129 238.203 5.34123C233.199 0.824447 225.588 -0.662632 220.24 1.7709ZM220.054 43.6985C221.883 44.6029 222.52 43.2547 226.49 28.4388C229.839 15.9419 231.226 12.3092 232.411 13.041C234.97 14.8312 237.739 27.1723 239.146 43.5672C239.935 52.4778 249.155 118.053 259.769 189.248C278.131 313.473 281.531 338.411 280.426 342.534C280.081 343.822 278.261 342.368 275.13 338.077C269.175 330.405 254.6 317.801 252.357 318.442C248.91 319.452 250.479 322.358 258.522 328.932C263.313 332.701 268.873 338.748 271.206 342.411L275.272 348.885L250.319 341.509C223.889 333.46 192.72 322.485 170.52 313.084C163.194 310.017 156.864 307.354 156.607 307.285C156.22 307.181 157.516 301.315 159.38 294.358C163.108 280.444 163.258 277.308 160.552 276.583C159.006 276.169 157.955 279.063 154.449 293.175L150.245 310.413L165.119 316.746C189.184 326.923 222.053 338.768 251.223 347.412L278.331 355.505L276.315 359.935C266.013 381.892 233.869 396.201 190.053 398.407C157.314 399.991 123.561 394.537 96.6368 383.18C41.3368 360.216 7.25618 326.091 10.4953 296.994C10.9558 292.699 11.9797 291.454 19.5131 286.016C28.0957 279.755 43.8802 272.385 56.2314 269.067C62.6694 267.202 66.2221 263.735 62.4856 262.734C58.749 261.732 40.9123 268 28.3077 274.841C17.3368 280.738 15.0589 281.509 15.6803 279.19C17.0611 274.036 28.2236 258.662 43.6083 240.415C51.9289 230.493 73.7176 202.777 91.8844 178.785C110.051 154.793 142.632 112.57 164.386 84.9827C186.011 57.3608 205.064 32.6398 206.725 30.0471C211.477 22.621 219.437 13.0165 222.575 11.0958C225.258 9.32918 225.214 10.0079 221.647 25.8983C218.296 40.4658 218.096 42.7596 220.054 43.6985Z" fill="#E3B6CD"/>
</svg>
