<svg width="80" height="89" viewBox="0 0 80 89" fill="none" xmlns="http://www.w3.org/2000/svg">
<path d="M47.0024 13.9979C46.1037 13.0763 44.5983 13.1395 43.7764 14.1334L42.4711 15.7118C40.9487 17.5529 38.219 17.8196 36.3736 16.3077C34.5286 14.7957 34.2672 12.0774 35.7896 10.2364L37.0949 8.65798C41.2047 3.68843 48.7318 3.37237 53.224 7.98079L56.365 11.2027L61.2593 2.77163C62.4577 0.70707 65.1076 -0.00297592 67.1777 1.1858C69.2478 2.37462 69.9545 5.01198 68.7561 7.07658L62.6303 17.6294L67.5349 22.6603C68.4707 23.6202 70.0511 23.5054 70.8422 22.42L72.0368 20.7801C73.443 18.8498 76.1518 18.4166 78.0869 19.8127C80.0219 21.2089 80.4503 23.9056 79.0441 25.836L77.8495 27.4758C73.8955 32.9027 65.9917 33.4772 61.3129 28.6776L58.1187 25.4013L53.4118 33.5104C52.2134 35.5748 49.5634 36.2849 47.4934 35.0962C45.4228 33.9075 44.7161 31.2701 45.9149 29.2054L51.8538 18.9745L47.0024 13.9979ZM27.7603 60.1629C22.1424 62.9022 15.5806 64.9685 9.20102 66.7404C9.29979 71.6708 10.6522 74.8264 12.3231 76.7511C14.2822 79.008 17.2135 80.1918 20.8873 80.1244C28.4704 79.9846 38.078 74.4079 42.8889 64.702C43.9487 62.5639 46.5464 61.6822 48.6911 62.7325C50.8354 63.783 51.7146 66.3681 50.6549 68.5066C44.5473 80.8279 32.1621 88.5449 21.0272 88.7502C15.3419 88.8548 9.73318 86.9745 5.76439 82.4024C1.8255 77.8648 0.0478303 71.3069 0.647774 63.12C1.45663 52.085 5.11116 44.3297 9.4491 38.9494C13.7539 33.6101 18.5531 30.8295 21.3359 29.4405C27.7684 26.23 34.3844 26.5011 38.9899 30.0442C43.6703 33.6445 45.2069 39.838 42.8306 45.9214C40.2239 52.5933 34.2302 57.0083 27.7603 60.1629ZM25.2026 37.1517C23.04 38.2311 19.4349 40.3274 16.1985 44.3415C13.7719 47.3511 11.4485 51.5671 10.1669 57.4947C15.1892 56.015 19.9231 54.3876 23.9661 52.4163C29.7406 49.6007 33.3366 46.4486 34.7586 42.8095C35.9049 39.8745 34.9916 37.8822 33.6847 36.8766C32.3028 35.8138 29.3949 35.0592 25.2026 37.1517Z" fill="#95A0E4"/>
</svg>
