<svg width="55" height="103" viewBox="0 0 55 103" fill="none" xmlns="http://www.w3.org/2000/svg">
<path d="M21.261 22.0249C20.0219 21.6761 18.7498 22.4835 18.5349 23.7552L18.1937 25.7747C17.7957 28.1304 15.5651 29.7262 13.211 29.3396C10.8572 28.9526 9.2717 26.7293 9.66964 24.3736L10.0109 22.3541C11.0852 15.9954 17.4459 11.9582 23.6404 13.7031L27.9716 14.9228L27.9946 5.17416C28.0002 2.78701 29.9401 0.847124 32.3272 0.841583C34.7144 0.836074 36.6451 2.76675 36.6396 5.15393L36.6109 17.3558L43.3738 19.2605C44.6642 19.6238 45.9755 18.7342 46.1178 17.3987L46.3325 15.3812C46.5851 13.0064 48.7145 11.2768 51.0883 11.5184C53.4622 11.76 55.1815 13.8813 54.9289 16.2561L54.7143 18.2735C54.0034 24.9503 47.4458 29.3997 40.9941 27.5826L36.5897 26.3423L36.5679 35.7184C36.5622 38.1055 34.6223 40.0454 32.2353 40.051C29.8478 40.0568 27.9171 38.1261 27.9229 35.7387L27.9507 23.909L21.261 22.0249ZM27.6793 71.626C24.1838 76.8072 19.5342 81.8775 14.8952 86.6019C17.446 90.8223 20.1951 92.879 22.6044 93.7104C25.4294 94.6853 28.56 94.2449 31.7079 92.3496C38.2051 88.437 43.7372 78.8036 43.0506 67.9926C42.8994 65.6111 44.7081 63.5486 47.0907 63.3859C49.473 63.2235 51.5269 65.0226 51.6785 67.4045C52.5497 81.1289 45.6824 94.0045 36.1419 99.7498C31.2706 102.683 25.4731 103.859 19.7501 101.884C14.0701 99.9236 9.25161 95.1332 5.6777 87.7431C0.860688 77.7821 0.147983 69.2386 1.21456 62.4101C2.27301 55.6337 5.03896 50.826 6.75445 48.2317C10.7198 42.2351 16.5851 39.1619 22.345 39.9276C28.1985 40.7053 32.6261 45.3007 33.6098 51.7573C34.6883 58.8386 31.7051 65.659 27.6793 71.626ZM13.9586 52.9765C12.6255 54.9926 10.5516 58.6106 9.75582 63.7051C9.1591 67.5248 9.25494 72.3377 11.1088 78.1119C14.7185 74.3193 18.0045 70.543 20.5201 66.8143C24.1132 61.4886 25.6514 56.9609 25.0633 53.0983C24.5886 49.9834 22.8014 48.7146 21.1668 48.4972C19.4386 48.2678 16.5431 49.0682 13.9586 52.9765Z" fill="#EBAECD"/>
</svg>
