<svg width="109" height="114" viewBox="0 0 109 114" fill="none" xmlns="http://www.w3.org/2000/svg">
<path d="M107.939 41.5341L37.673 0.965909C36.7483 0.432018 35.568 0.748277 35.0341 1.673L29.2386 11.711C28.7047 12.6358 29.021 13.816 29.9457 14.3499L41.6519 21.1085C32.6869 36.4399 10.7315 71.6079 2.12759 74.9685C1.43515 75.2396 0.961241 75.8831 0.904124 76.6235C0.849586 77.3631 1.2213 78.0701 1.86502 78.4417L11.903 84.2372C12.4111 84.5305 13.0245 84.5775 13.5723 84.3644C24.5721 80.065 49.2016 38.8165 55.0359 28.8357L75.1168 40.4295L47.1055 88.9466C43.3777 95.4033 45.5984 103.691 52.0551 107.419L62.0931 113.214C62.6307 113.525 63.2845 113.558 63.8517 113.304C64.4173 113.049 64.8283 112.537 64.9511 111.928L67.4005 99.9581C67.5677 99.1441 67.1949 98.3146 66.4744 97.8986L63.1324 95.9712C62.2109 95.4392 61.8907 94.2545 62.4227 93.333L88.5009 48.1568L100.212 54.9181C101.137 55.452 102.317 55.1358 102.851 54.211L108.646 44.173C109.18 43.2483 108.864 42.068 107.939 41.5341Z" fill="#BFE5EF"/>
</svg>
