<svg width="104" height="78" viewBox="0 0 104 78" fill="none" xmlns="http://www.w3.org/2000/svg">
<path d="M103.952 9.33982L14.2554 77.0397L0.780467 67.5488L11.71 27.2334L7.95475 24.5885C7.16597 24.0329 6.48798 23.3897 5.92584 22.6605C5.3637 21.9312 4.9822 21.1226 4.78212 20.2394C4.58574 19.3567 4.60077 18.4061 4.82955 17.3873C5.05873 16.3709 5.57422 15.2963 6.37136 14.1646L9.84877 9.22748L28.7754 22.5583C29.906 23.3546 30.6697 24.2913 31.0685 25.3657C31.4655 26.4427 31.5227 27.4708 31.2415 28.4506L25.8586 42.4319C25.2819 44.4878 24.5692 46.4869 23.7162 48.4239C22.8637 50.3632 21.9231 52.2794 20.8995 54.1739C22.0813 53.0043 23.302 51.8519 24.5654 50.7172C25.8284 49.5803 27.1715 48.4343 28.5985 47.2881L87.1854 1.68563C88.0166 1.08912 88.9906 0.78944 90.1211 0.790193C91.2488 0.789023 92.3324 1.15549 93.3576 1.87764L103.952 9.33982Z" fill="#95A0E4"/>
</svg>
