<svg width="483" height="120" viewBox="0 0 483 120" fill="none" xmlns="http://www.w3.org/2000/svg">
<path d="M1.8342 29.4385C0.369323 31.8734 0.476594 35.4427 2.64773 73.8966C4.46936 106.16 5.31254 116.086 6.34213 117.628L7.68536 119.716L244.268 106.358C463.186 93.998 481.033 92.8963 482.075 91.332C483.04 90.0543 482.861 81.8787 480.918 47.4578C478.715 8.4411 478.42 4.88239 476.69 2.62782L474.95 0.18567L239.119 13.5008L3.28848 26.816L1.8342 29.4385ZM29.5967 45.3715L30.3446 53.6092L35.2145 53.0519L40.0843 52.4947L39.9002 44.2253L39.7213 36.0496L44.3252 35.7897L49.023 35.5244L49.4996 43.9655L49.9762 52.4066L55.1438 52.1149L60.3114 51.8231L59.8348 43.382L59.3582 34.9409L64.0561 34.6757L68.7539 34.4104L69.6806 50.8237L70.6073 67.2369L76.2447 66.9186L81.8821 66.6004L81.1539 50.3641L80.5249 34.2163L84.753 33.9776L88.981 33.7388L89.7553 42.4454L90.5297 51.152L95.8693 50.5682L101.209 49.9845L100.998 41.2461L100.793 32.6015L105.397 32.3415L110.001 32.0816L110.77 40.6944L111.544 49.4009L116.242 49.1357L120.94 48.8704L120.729 40.1321L120.524 31.4875L124.658 31.2541L128.886 31.0153L129.813 47.4286L130.739 63.8418L136.377 63.5236L142.014 63.2053L141.286 46.969L140.657 30.8212L144.587 30.317L148.518 29.8128L149.292 38.5194L150.066 47.2259L155.234 46.9342L160.402 46.6424L160.191 37.904L159.98 29.1656L163.942 29.2242L167.904 29.2828L168.673 37.8955L169.448 46.6021L174.521 46.3156L179.689 46.0239L179.186 37.1138L178.683 28.2038L182.911 27.965L187.139 27.7263L188.066 44.1396L188.992 60.5528L194.16 60.2611L199.328 59.9693L198.401 43.5561L197.474 27.1428L202.642 26.851L207.715 26.5646L208.458 34.7084L209.206 42.946L214.374 42.6542L219.541 42.3625L219.357 34.093L219.178 25.9174L223.782 25.6574L228.48 25.3922L228.956 33.8333L229.433 42.2744L235.07 41.9561L240.708 41.6378L240.231 33.1967L239.755 24.7556L244.452 24.4904L249.15 24.2251L250.051 40.1694L250.951 56.1137L256.118 55.822L261.286 55.5302L260.584 39.7629L259.982 24.084L264.68 23.8188L269.377 23.5535L270.125 31.7912L270.873 40.0288L275.743 39.4715L280.613 38.9143L280.429 30.6449L280.25 22.4692L284.854 22.2093L289.552 21.9441L290.028 30.3852L290.505 38.8263L296.142 38.508L301.78 38.1897L301.303 29.7486L300.826 21.3075L305.054 21.0688L309.282 20.83L310.209 37.2433L311.136 53.6565L316.773 53.3383L322.411 53.02L321.682 36.7837L321.053 20.6359L325.282 20.3972L329.51 20.1584L330.247 28.2085L330.984 36.2585L335.808 36.5507C338.46 36.7773 340.996 36.6341 341.356 36.3315C341.81 36.0236 341.964 32.0632 341.699 27.3737L341.228 19.0264L345.456 18.7877L349.59 18.5543L350.332 26.6981L351.08 34.9357L356.248 34.6439L361.415 34.3522L361.231 26.0827L361.052 17.9071L366.126 17.6206L371.294 17.3288L372.22 33.7421L373.152 50.2491L378.586 49.6601L383.926 49.0763L383.495 33.1055L383.065 17.1347L388.232 16.8429L393.4 16.5512L394.174 25.2577L394.949 33.9643L400.288 33.3805L405.628 32.7968L405.417 24.0584L405.212 15.4138L409.346 15.1804L413.574 14.9417L414.077 23.8517L414.58 32.7618L420.218 32.4435L425.855 32.1252L425.352 23.2151L424.849 14.3051L430.016 14.0133L435.184 13.7216L436.111 30.1348L437.037 46.5481L442.205 46.2563L447.373 45.9645L446.644 29.7282L446.016 13.5804L457.087 12.6731L468.064 11.7711L470.081 47.5051L472.093 83.1453L243.779 96.036L15.465 108.927L13.4527 73.2866L11.4352 37.5526L20.189 37.3406L28.8489 37.1339L29.5967 45.3715Z" fill="#F1DEC3"/>
</svg>
