<svg width="388" height="377" viewBox="0 0 388 377" fill="none" xmlns="http://www.w3.org/2000/svg">
<path d="M260.114 1.17561C254.991 1.73388 210.143 4.61455 160.309 7.53867C99.5234 11.1147 67.7935 13.51 63.6576 15.0227C54.3454 18.321 47.2832 24.5673 42.9355 33.0582C39.6897 39.4993 36.9818 50.6367 23.2215 113.851C14.4993 154.138 5.83696 194.716 4.06757 203.898C-2.13886 236.858 0.351679 250.768 15.7919 270.492C28.3468 286.547 103.733 375.441 105.658 376.509C107.806 377.774 275.694 368.963 287.249 367.093C305.492 363.98 316.743 354.994 325.559 336.528C328.005 331.527 342.374 292.34 357.485 249.351C388.586 161.126 390 155.849 386.532 138.367C382.945 120.301 377.097 111.699 336.775 65.7199C321.333 48.0641 304.818 28.7412 299.932 22.7419C283.529 2.48365 277.463 -0.659167 260.114 1.17561ZM267.984 28.5275C264.398 41.9124 263.508 46.7779 264.487 48.2816C265.311 49.3302 266.403 49.8984 266.927 49.4873C267.547 49.2393 270.209 40.8488 272.83 31.0675C276.072 18.9696 278.105 13.445 279.007 13.6868C279.781 13.894 285.346 19.9373 291.28 27.183C297.343 34.4632 315.894 55.9867 332.607 75.0866C362.314 109.117 377.633 130.327 374.674 133.12C371.551 136.008 300.219 149.035 255.936 154.964L241.923 156.727L247.027 137.679C251.131 122.364 251.848 118.142 250.646 116.44C248.43 113.364 247.69 115.096 241.302 137.386L235.57 157.231L211.259 159.27C197.934 160.527 184.292 161.424 180.991 161.367L174.905 161.391L118.076 95.54C86.7893 59.1546 60.7756 28.8723 60.269 28.1847C59.9257 27.403 62.4457 25.7333 65.997 24.3398C70.752 22.5792 95.3211 20.6102 163.818 16.6173C214.201 13.7027 258.594 10.9758 262.419 10.6214C266.408 10.1729 270.294 10.1105 271.23 10.2236C272.391 10.5345 271.605 15.0139 267.984 28.5275ZM110.696 101.425L166.254 165.832L163.46 176.257C159.839 189.771 141.699 247.673 140.917 248.015C140.59 248.204 132.011 248.25 121.911 248.302C98.8991 248.068 96.3372 248.347 97.6502 251.182C98.5255 253.072 102.015 253.455 118.975 253.585C130.141 253.68 139.33 253.936 139.425 254.099C139.743 254.46 109.924 351.305 107.176 358.983L105.78 363.161L68.5681 318.981C23.8584 266.171 16.911 257.55 14.7662 252.147L13.2479 248.016L19.5228 248.318C24.0184 248.557 26.2624 247.917 26.9341 246.441C28.036 244.392 27.297 244.056 19.6131 242.824L10.9923 241.48L10.447 235.265C9.45832 224.516 11.4182 213.592 29.8118 128.445C47.2998 47.194 50.9987 32.8737 53.7043 35.6678C54.5033 36.2957 80.0103 65.8905 110.696 101.425ZM378.074 148.791C378.133 160.946 374.367 173.455 348.495 246.804C322.15 321.406 315.363 338.485 309.1 345.359L305.736 349.148L297.096 339.108C291.445 332.352 287.777 329.025 286.187 329.288C282.782 329.617 284.353 332.521 293.946 343.644L301.89 352.67L297.978 354.38C295.957 355.218 291.271 356.721 287.506 357.368C279.45 359.072 116.384 367.934 115.594 366.756C114.968 365.485 174.199 172.789 175.705 171.813C176.229 171.402 188.419 170.254 202.776 169.273C252.653 165.671 313.133 157.047 354.204 147.637C365.509 145.149 375.448 143.122 376.35 143.363C377.287 143.477 377.99 146.01 378.074 148.791Z" fill="#EBAECD"/>
</svg>
