<svg width="104" height="78" viewBox="0 0 104 78" fill="none" xmlns="http://www.w3.org/2000/svg">
<path d="M103.567 9.33982L13.8704 77.0397L0.395517 67.5488L11.3251 27.2334L7.5698 24.5885C6.78102 24.0329 6.10303 23.3897 5.54089 22.6605C4.97875 21.9312 4.59725 21.1226 4.39717 20.2394C4.20079 19.3567 4.21582 18.4061 4.4446 17.3873C4.67378 16.3709 5.18927 15.2963 5.98641 14.1646L9.46382 9.22748L28.3905 22.5583C29.521 23.3546 30.2848 24.2913 30.6836 25.3657C31.0805 26.4427 31.1377 27.4708 30.8566 28.4506L25.4737 42.4319C24.8969 44.4878 24.1843 46.4869 23.3313 48.4239C22.4787 50.3632 21.5381 52.2794 20.5146 54.1739C21.6963 53.0043 22.917 51.8519 24.1805 50.7172C25.4435 49.5803 26.7865 48.4343 28.2135 47.2881L86.8005 1.68563C87.6317 1.08912 88.6056 0.789437 89.7361 0.790191C90.8639 0.78902 91.9474 1.15549 92.9727 1.87764L103.567 9.33982Z" fill="#EBAECD"/>
</svg>
