<svg width="109" height="113" viewBox="0 0 109 113" fill="none" xmlns="http://www.w3.org/2000/svg">
<path d="M107.403 40.9982L37.1371 0.43002C36.2124 -0.103871 35.0321 0.212388 34.4982 1.13711L28.7027 11.1751C28.1689 12.0999 28.4851 13.2802 29.4098 13.814L41.116 20.5726C32.1511 35.9041 10.1956 71.072 1.5917 74.4326C0.899258 74.7037 0.425352 75.3472 0.368235 76.0876C0.313698 76.8272 0.685415 77.5342 1.32913 77.9058L11.3672 83.7013C11.8753 83.9946 12.4886 84.0416 13.0364 83.8285C24.0362 79.5291 48.6657 38.2806 54.5 28.2999L74.5809 39.8936L46.5696 88.4107C42.8418 94.8674 45.0625 103.155 51.5192 106.883L61.5573 112.679C62.0948 112.989 62.7487 113.022 63.3158 112.768C63.8814 112.513 64.2924 112.001 64.4152 111.392L66.8646 99.4223C67.0318 98.6082 66.659 97.7787 65.9385 97.3627L62.5965 95.4353C61.675 94.9033 61.3548 93.7186 61.8868 92.7971L87.965 47.6209L99.676 54.3822C100.601 54.9161 101.781 54.5999 102.315 53.6751L108.11 43.6371C108.644 42.7124 108.328 41.5321 107.403 40.9982Z" fill="#F1D4AC"/>
</svg>
