<svg width="80" height="98" viewBox="0 0 80 98" fill="none" xmlns="http://www.w3.org/2000/svg">
<path d="M53.8015 28.5642L1.2512 42.6643C0.559618 42.8498 0.149772 43.5597 0.334861 44.2514L2.34403 51.76C2.52912 52.4517 3.23851 52.8613 3.93009 52.6757L12.6848 50.3267C15.6998 61.8485 21.9558 88.938 19.4682 94.6129C19.2684 95.07 19.3486 95.5999 19.6724 95.978C19.9971 96.3546 20.5085 96.5134 20.9899 96.3842L28.4971 94.3699C28.8771 94.268 29.1902 93.9993 29.349 93.6384C32.5278 86.3817 24.658 55.1408 22.6944 47.6409L37.7124 43.6114L47.4234 79.9028C48.7158 84.7325 53.697 87.6084 58.5258 86.3127L66.033 84.2985C66.435 84.1906 66.7609 83.8962 66.9094 83.5066C67.0567 83.1174 67.009 82.6796 66.7787 82.3327L62.2671 75.4956C61.9606 75.0303 61.3906 74.8139 60.8517 74.9585L58.3533 75.6301C57.6642 75.815 56.9508 75.4052 56.7664 74.716L47.722 40.9256L56.4804 38.5756C57.172 38.3901 57.5818 37.6802 57.3968 36.9885L55.3876 29.4799C55.2025 28.7882 54.4931 28.3787 53.8015 28.5642Z" fill="#95A0E4"/>
</svg>
