<svg width="50" height="50" viewBox="0 0 50 50" fill="none" xmlns="http://www.w3.org/2000/svg">
<g clip-path="url(#clip0_0_363)">
<path fill-rule="evenodd" clip-rule="evenodd" d="M25 50C38.8071 50 50 38.8071 50 25C50 11.1929 38.8071 0 25 0C11.1929 0 0 11.1929 0 25C0 38.8071 11.1929 50 25 50ZM34.8813 14.4964C32.3086 11.9205 28.8869 10.5014 25.2416 10.5C17.7308 10.5 11.6173 16.6126 11.6146 24.1261C11.6137 26.5279 12.2411 28.8723 13.4334 30.9384L11.5 38L18.7239 36.1053C20.7141 37.1911 22.9554 37.7631 25.2357 37.764H25.2411C32.7514 37.764 38.8649 31.6505 38.8681 24.1374C38.8704 20.4957 37.4545 17.0723 34.8813 14.4964ZM25.2421 35.4623H25.2375C23.2049 35.4614 21.2115 34.9153 19.4727 33.8835L19.059 33.6381L14.772 34.7625L15.9161 30.5829L15.6469 30.1541C14.5133 28.3507 13.9144 26.2669 13.9154 24.1266C13.9176 17.8817 18.9989 12.8013 25.2461 12.8013C28.2713 12.8022 31.115 13.9821 33.2534 16.1229C35.3919 18.2636 36.5687 21.1091 36.5678 24.1357C36.5655 30.3815 31.4846 35.4623 25.2421 35.4623ZM31.4543 26.9794C31.1137 26.8089 29.44 25.9854 29.1276 25.8717C28.8157 25.758 28.5883 25.7012 28.3614 26.0422C28.1345 26.3833 27.482 27.1499 27.2833 27.3773C27.0846 27.6046 26.8859 27.6328 26.5457 27.4623C26.4901 27.4344 26.4142 27.4015 26.3204 27.3608C25.841 27.1528 24.8953 26.7428 23.8076 25.7722C22.7954 24.8691 22.1119 23.7542 21.9132 23.4136C21.7146 23.0726 21.8919 22.8884 22.0624 22.7188C22.1646 22.6169 22.282 22.4739 22.3993 22.331C22.4578 22.2597 22.5164 22.1884 22.573 22.1222C22.7173 21.9537 22.78 21.8258 22.8651 21.6525C22.8804 21.6214 22.8963 21.5888 22.9136 21.5543C23.0273 21.327 22.9705 21.1283 22.8854 20.9578C22.8286 20.8439 22.5059 20.0583 22.2132 19.3461C22.0677 18.992 21.9297 18.656 21.8355 18.4296C21.5914 17.8435 21.3442 17.845 21.1457 17.8462C21.1193 17.8464 21.0938 17.8465 21.0693 17.8453C20.871 17.8353 20.6437 17.8335 20.4168 17.8335C20.1899 17.8335 19.8212 17.9185 19.5088 18.2596C19.4887 18.2815 19.4662 18.3055 19.4417 18.3316C19.0869 18.7104 18.317 19.5324 18.317 21.1001C18.317 22.772 19.531 24.3874 19.7062 24.6206L19.7075 24.6222C19.7185 24.637 19.7383 24.6655 19.7666 24.7061C20.1731 25.2891 22.3307 28.3846 25.524 29.7635C26.3366 30.1145 26.9705 30.3237 27.4652 30.4806C28.2809 30.7398 29.023 30.7034 29.61 30.6157C30.2643 30.5179 31.6244 29.7922 31.9081 28.9969C32.1918 28.2017 32.1918 27.5196 32.1068 27.3777C32.0382 27.2629 31.8772 27.185 31.6388 27.0697C31.5816 27.0422 31.5201 27.0124 31.4543 26.9794Z" fill="#6F3DFF"/>
</g>
<defs>
<clipPath id="clip0_0_363">
<rect width="50" height="50" fill="white"/>
</clipPath>
</defs>
</svg>
