<svg width="50" height="51" viewBox="0 0 50 51" fill="none" xmlns="http://www.w3.org/2000/svg">
<path fill-rule="evenodd" clip-rule="evenodd" d="M25 50.7554C38.8071 50.7554 50 39.5016 50 25.6195C50 11.7374 38.8071 0.483643 25 0.483643C11.1929 0.483643 0 11.7374 0 25.6195C0 39.5016 11.1929 50.7554 25 50.7554ZM35.9886 16.5426C36.1813 14.3407 33.8686 15.2473 33.8686 15.2473C32.161 15.9581 30.4 16.6803 28.6199 17.4104C23.1004 19.674 17.3981 22.0127 12.5406 24.3143C9.90665 25.2858 11.4485 26.2572 11.4485 26.2572L15.6242 27.5525C17.5513 28.1353 18.5793 27.4877 18.5793 27.4877L27.573 21.3352C30.785 19.1332 30.0142 20.9466 29.2433 21.7238L22.4979 28.2001C21.4701 29.1068 21.984 29.884 22.4337 30.2725C23.7082 31.4031 26.8433 33.4717 28.212 34.3748C28.5682 34.6098 28.8048 34.7659 28.8578 34.806C29.1791 35.0651 30.9135 36.2308 32.0699 35.9717C33.2262 35.7127 33.3547 34.2231 33.3547 34.2231L34.8965 24.0552C35.1278 22.29 35.393 20.5933 35.6049 19.2382C35.805 17.9583 35.9574 16.9831 35.9886 16.5426Z" fill="#6F3DFF"/>
</svg>
