<svg width="49" height="50" viewBox="0 0 49 50" fill="none" xmlns="http://www.w3.org/2000/svg">
<path fill-rule="evenodd" clip-rule="evenodd" d="M24.5 49.7499C38.031 49.7499 49 38.7213 49 25.1168C49 11.5123 38.031 0.483643 24.5 0.483643C10.969 0.483643 0 11.5123 0 25.1168C0 38.7213 10.969 49.7499 24.5 49.7499ZM33.2707 16.5571C35.1515 16.7279 36.2111 17.8847 36.4435 19.729C36.6059 21.0157 36.75 22.8586 36.75 24.8402C36.75 28.3204 36.4435 30.3325 36.4435 30.3325C36.1549 32.1692 35.2718 33.1667 33.4147 33.3777C31.3397 33.6135 26.6729 33.7221 24.5992 33.7221C22.4531 33.7221 18.1126 33.6316 15.9459 33.4501C14.0834 33.2943 12.8126 32.2483 12.5565 30.3868C12.3703 29.0312 12.25 27.4201 12.25 24.8583C12.25 22.0065 12.3523 20.7997 12.5926 19.5114C12.9355 17.6728 13.8081 16.7822 15.8014 16.5751C17.893 16.3575 19.8696 16.2489 24.2927 16.2489C26.4551 16.2489 31.1171 16.3614 33.2707 16.5571ZM21.895 21.3662V28.4475L28.6012 24.8707L21.895 21.3662Z" fill="#6F3DFF"/>
</svg>
