<svg width="50" height="51" viewBox="0 0 50 51" fill="none" xmlns="http://www.w3.org/2000/svg">
<path fill-rule="evenodd" clip-rule="evenodd" d="M25 50.7554C38.8071 50.7554 50 39.5016 50 25.6195C50 11.7374 38.8071 0.483643 25 0.483643C11.1929 0.483643 0 11.7374 0 25.6195C0 39.5016 11.1929 50.7554 25 50.7554ZM12.5 17.576C12.703 27.3729 17.5749 33.2605 26.1164 33.2605H26.6007V27.6555C29.7393 27.9695 32.1126 30.2774 33.0651 33.2605H37.5C36.282 28.8016 33.0807 26.3367 31.082 25.3947C33.0807 24.2329 35.8915 21.4068 36.563 17.576H32.5341C31.6596 20.6846 29.0679 23.5107 26.6007 23.7776V17.576H22.5718V28.4405C20.0733 27.8125 16.9191 24.7667 16.7786 17.576H12.5Z" fill="#6F3DFF"/>
</svg>
